<svg height="300px" width="300px" fill="#000000" xmlns:dc="http://purl.org/dc/elements/1.1/" xmlns:cc="http://creativecommons.org/ns#" xmlns:rdf="http://www.w3.org/1999/02/22-rdf-syntax-ns#" xmlns:svg="http://www.w3.org/2000/svg" xmlns="http://www.w3.org/2000/svg" xmlns:sodipodi="http://sodipodi.sourceforge.net/DTD/sodipodi-0.dtd" xmlns:inkscape="http://www.inkscape.org/namespaces/inkscape" version="1.1" x="0px" y="0px" viewBox="0 0 100 100"><g transform="translate(0,-952.36218)"><path style="text-indent:0;text-transform:none;direction:ltr;block-progression:tb;baseline-shift:baseline;color:#000000;enable-background:accumulate;" d="M 28.96875,961.36235 A 3.0003,2.9980088 0 0 0 26,964.42251 l 0,3.99694 -1,0 c -8.812073,0 -16,7.18244 -16,15.98778 l 0,42.96717 c 0,8.8054 7.187927,15.9878 16,15.9878 l 50,0 c 8.812073,0 16,-7.1824 16,-15.9878 l 0,-42.96717 c 0,-8.80534 -7.187927,-15.98778 -16,-15.98778 l -1,0 0,-3.99694 A 3.0003,2.9980088 0 0 0 70.96875,961.36235 3.0003,2.9980088 0 0 0 68,964.42251 l 0,3.99694 -15,0 0,-3.99694 A 3.0003,2.9980088 0 0 0 49.96875,961.36235 3.0003,2.9980088 0 0 0 47,964.42251 l 0,3.99694 -15,0 0,-3.99694 a 3.0003,2.9980088 0 0 0 -3.03125,-3.06016 z M 25,974.41487 l 1,0 0,5.99542 a 3.0003,2.9980088 0 1 0 6,0 l 0,-5.99542 15,0 0,5.99542 a 3.0003,2.9980088 0 1 0 6,0 l 0,-5.99542 15,0 0,5.99542 a 3.0003,2.9980088 0 1 0 6,0 l 0,-5.99542 1,0 c 5.591856,0 10,4.40477 10,9.99236 l 0,42.96717 c 0,5.5876 -4.408144,9.9924 -10,9.9924 l -50,0 c -5.591856,0 -10,-4.4048 -10,-9.9924 l 0,-32.9748 63,0 a 3.0003,2.9980088 0 1 0 0,-5.99542 l -63,0 0,-3.99695 c 0,-5.58759 4.408144,-9.99236 10,-9.99236 z" fill="#000000" fill-opacity="1" stroke="none" marker="none" visibility="visible" display="inline" overflow="visible"/></g></svg>