<svg height="300px" width="300px" fill="#000000" xmlns="http://www.w3.org/2000/svg" xmlns:xlink="http://www.w3.org/1999/xlink" version="1.1" x="0px" y="0px" viewBox="0 0 100 100" style="enable-background:new 0 0 100 100;" xml:space="preserve"><path d="M23.8,77.1l17.1-26.6H27.7c-3.7,0-6.8,3-6.8,6.8v14.3C20.9,73.9,22,75.9,23.8,77.1z"/><path d="M55.8,68.3l11.4-17.7H50.6l-18,27.8h1.9c0.7,0,1.2-0.5,3-3.3c2.1-3.3,5.3-8.4,12.3-8.4C52.2,66.7,54.2,67.3,55.8,68.3z"/><path d="M76,51.9L61.6,74.3c0.2,0.3,0.4,0.6,0.5,0.8c1.8,2.8,2.3,3.3,3,3.3H68h4c3.7,0,6.8-3,6.8-6.8V57.3  C78.7,55.1,77.6,53.1,76,51.9z"/><path d="M88.3,53c-0.1-21.1-17.4-38.2-38.5-38.2c-21.1,0-38.4,17.1-38.5,38.2c-2.8,1.3-4.6,3.7-4.6,6.5v8.7c0,3.8,3.5,6.9,8.1,7.4  c1.7,5.6,6.9,9.6,13,9.6h6.9c4.7,0,6.8-3.4,8.7-6.4c2-3.2,3.4-5.2,6.6-5.2c3.1,0,4.5,2,6.6,5.2c1.9,3,4.1,6.4,8.7,6.4h6.9  c6.1,0,11.3-4.1,13-9.6c4.6-0.5,8.1-3.6,8.1-7.4v-8.7C93.1,56.7,91.1,54.3,88.3,53z M16.5,49.6c1.7-15.2,13.6-27.4,28.7-29.5v23.6  H27.7C23.1,43.7,19,46,16.5,49.6z M81.8,71.6h-0.2c0,5.3-4.3,9.7-9.7,9.7H65c-2.4,0-3.6-1.8-5.4-4.6c-2-3.1-4.4-7-9.8-7  s-7.9,3.9-9.8,7c-1.8,2.9-3,4.6-5.4,4.6h-6.8c-5.3,0-9.7-4.3-9.7-9.7V57.3c0-5.3,4.3-9.7,9.7-9.7h44.3c5.3,0,9.7,4.3,9.7,9.7V71.6z   M71.9,43.7H54.8V20.2c14.9,2.3,26.6,14.4,28.3,29.5C80.6,46,76.5,43.7,71.9,43.7z"/></svg>